<svg id="visual" viewBox="0 0 900 600" width="900" height="600" xmlns="http://www.w3.org/2000/svg" xmlns:xlink="http://www.w3.org/1999/xlink" version="1.1"><rect x="0" y="0" width="900" height="600" fill="#00040c"></rect><defs><linearGradient id="grad1_0" x1="33.3%" y1="0%" x2="100%" y2="100%"><stop offset="20%" stop-color="#111827" stop-opacity="1"></stop><stop offset="80%" stop-color="#111827" stop-opacity="1"></stop></linearGradient></defs><defs><linearGradient id="grad1_1" x1="33.3%" y1="0%" x2="100%" y2="100%"><stop offset="20%" stop-color="#111827" stop-opacity="1"></stop><stop offset="80%" stop-color="#0d131f" stop-opacity="1"></stop></linearGradient></defs><defs><linearGradient id="grad1_2" x1="33.3%" y1="0%" x2="100%" y2="100%"><stop offset="20%" stop-color="#070d17" stop-opacity="1"></stop><stop offset="80%" stop-color="#0d131f" stop-opacity="1"></stop></linearGradient></defs><defs><linearGradient id="grad1_3" x1="33.3%" y1="0%" x2="100%" y2="100%"><stop offset="20%" stop-color="#070d17" stop-opacity="1"></stop><stop offset="80%" stop-color="#00040c" stop-opacity="1"></stop></linearGradient></defs><defs><linearGradient id="grad2_0" x1="0%" y1="0%" x2="66.7%" y2="100%"><stop offset="20%" stop-color="#111827" stop-opacity="1"></stop><stop offset="80%" stop-color="#111827" stop-opacity="1"></stop></linearGradient></defs><defs><linearGradient id="grad2_1" x1="0%" y1="0%" x2="66.7%" y2="100%"><stop offset="20%" stop-color="#0d131f" stop-opacity="1"></stop><stop offset="80%" stop-color="#111827" stop-opacity="1"></stop></linearGradient></defs><defs><linearGradient id="grad2_2" x1="0%" y1="0%" x2="66.7%" y2="100%"><stop offset="20%" stop-color="#0d131f" stop-opacity="1"></stop><stop offset="80%" stop-color="#070d17" stop-opacity="1"></stop></linearGradient></defs><defs><linearGradient id="grad2_3" x1="0%" y1="0%" x2="66.7%" y2="100%"><stop offset="20%" stop-color="#00040c" stop-opacity="1"></stop><stop offset="80%" stop-color="#070d17" stop-opacity="1"></stop></linearGradient></defs><g transform="translate(900, 0)"><path d="M0 540.8C-58.5 498.7 -117.1 456.5 -178.3 430.5C-239.6 404.5 -303.5 394.7 -361.3 361.3C-419.1 328 -470.8 271.1 -499.7 207C-528.6 142.8 -534.7 71.4 -540.8 0L0 0Z" fill="#030812"></path><path d="M0 405.6C-43.9 374 -87.8 342.4 -133.7 322.9C-179.7 303.4 -227.6 296 -271 271C-314.3 246 -353.1 203.3 -374.7 155.2C-396.4 107.1 -401 53.6 -405.6 0L0 0Z" fill="#0a101b"></path><path d="M0 270.4C-29.3 249.3 -58.5 228.3 -89.2 215.3C-119.8 202.3 -151.8 197.3 -180.7 180.7C-209.6 164 -235.4 135.6 -249.8 103.5C-264.3 71.4 -267.3 35.7 -270.4 0L0 0Z" fill="#0f1623"></path><path d="M0 135.2C-14.6 124.7 -29.3 114.1 -44.6 107.6C-59.9 101.1 -75.9 98.7 -90.3 90.3C-104.8 82 -117.7 67.8 -124.9 51.7C-132.1 35.7 -133.7 17.9 -135.2 0L0 0Z" fill="#111827"></path></g><g transform="translate(0, 600)"><path d="M0 -540.8C78 -541.7 155.9 -542.5 207 -499.7C258 -456.8 282.1 -370.3 310.4 -310.4C338.7 -250.5 371.1 -217.2 410.2 -169.9C449.3 -122.6 495.1 -61.3 540.8 0L0 0Z" fill="#030812"></path><path d="M0 -405.6C58.5 -406.2 116.9 -406.9 155.2 -374.7C193.5 -342.6 211.6 -277.7 232.8 -232.8C254 -187.9 278.3 -162.9 307.7 -127.4C337 -92 371.3 -46 405.6 0L0 0Z" fill="#0a101b"></path><path d="M0 -270.4C39 -270.8 78 -271.2 103.5 -249.8C129 -228.4 141.1 -185.2 155.2 -155.2C169.3 -125.3 185.6 -108.6 205.1 -85C224.6 -61.3 247.5 -30.7 270.4 0L0 0Z" fill="#0f1623"></path><path d="M0 -135.2C19.5 -135.4 39 -135.6 51.7 -124.9C64.5 -114.2 70.5 -92.6 77.6 -77.6C84.7 -62.6 92.8 -54.3 102.6 -42.5C112.3 -30.7 123.8 -15.3 135.2 0L0 0Z" fill="#111827"></path></g></svg>